#!OML:ASF F:\VICON\USERDATA\INSTALL\rory3\rory3.ASF
:FULLY-SPECIFIED
:DEGREES
62
root -6.0069497961738305 18.067445429515498 -0.30361323461019457 -165.4170267226138 67.31323473270785 -181.45309574532098
lfemur -30.128126065727997 5.605194831857249 -17.815993113746952
ltibia 20.306696965330584
lfoot -2.8787655788934767 -19.427603678867364
ltoes -9.960270655869675
rfemur -23.805793316150435 -4.632445151026533 6.419233703889105
rtibia 35.044821072568524
rfoot -8.797421595060154 -32.51328101858406
rtoes 0.41539006224290986
lowerback -3.8780430049931085 -8.33739340250816 2.7273562412008303
upperback 4.474469580866218 -11.206658579768884 8.875500628560488
thorax 8.842284724342708 -5.700656943789296 7.32140750239432
lowerneck -13.405974715856832 0.4219701141307143 1.8948271226262223
upperneck 27.22670682913687 4.7826941313626445 -13.269307057281942
head 11.229504061825237 1.0388137699646458 -4.130555890424241
lclavicle -5.8323057358630465e-15 -1.0892774964499152e-14
lhumerus 44.83868798656695 -60.85536260495771 82.03543772450837
lradius 19.30983540622425
lwrist -1.1066446595037753
lhand -2.6472616059230933 33.56530849913559
lfingers 7.125020000000001
lthumb -156.97819790976405 45.90852406119913
rclavicle -5.8323057358630386e-15 -1.0892774964499153e-14
rhumerus -2.8449248854290943 -3.2272742657566216 -81.77428844123237
rradius 69.37379405663555
rwrist -59.918644432403944
rhand -61.704879830344126 9.227523413397908
rfingers 7.125020000000001
rthumb -33.789537603126384 -18.322703516178837
63
root -5.936301065443022 18.103418678552625 -0.5260303472745431 -178.93710506938825 60.99361631980481 -193.15194116817298
lfemur -26.143480647143107 3.595304725638589 -19.712355565118116
ltibia 16.52673487086856
lfoot -1.5636061174839364 -23.86756815923448
ltoes -6.006492417362141
rfemur -19.792929993017914 -4.622559020446882 4.764792748985785
rtibia 36.33260829805397
rfoot -7.713903149080196 -34.906035560108684
rtoes 5.813527567748428
lowerback -5.64991508682488 -7.391673163763597 3.603446961420816
upperback 3.963781485398492 -10.000635059301288 10.034612668347496
thorax 9.2453878586361 -5.023102897078932 8.098720862544358
lowerneck -12.685016153101333 -2.9923554617565364 0.18704980948962935
upperneck 28.323896135574856 0.5023022033177214 -13.00768320968609
head 11.018023147744529 -0.9279387961271557 -4.240124602961243
lclavicle -6.202183356097449e-15 -1.120652826541038e-14
lhumerus 34.605634904702 -59.86890238367515 87.28181477085704
lradius 18.262567463842668
lwrist 1.4581254186386516
lhand 1.130867221071627 42.17449771286569
lfingers 7.125020000000001
lthumb -153.36033760992134 40.70257299164417
rclavicle -6.202183356097448e-15 -1.1206528265410381e-14
rhumerus -5.373557030565955 0.4104557367601753 -84.86297222097697
rradius 60.29490381745359
rwrist -65.58505646672664
rhand -56.22793382946092 3.9071405069940113
rfingers 7.125020000000001
rthumb -28.534620734101914 -24.015024158183476
64
root -5.854085539409502 18.131895346593726 -0.7187433811517516 -185.7067410599209 54.644238346761156 -197.97835232155154
lfemur -21.791397182077443 2.13836684073363 -21.360588824162512
ltibia 13.108863507842408
lfoot -0.08685558780209046 -27.469638657409877
ltoes -1.1209518072728608
rfemur -15.578314345256727 -4.359905764452294 3.5315787610034057
rtibia 37.391219029395124
rfoot -5.941783771267722 -36.07402003385685
rtoes 10.667088977754977
lowerback -7.1139471781321815 -6.040537770131728 4.2708322066767535
upperback 3.2919666838270647 -8.25435952362006 11.105172397225065
thorax 9.229925936904628 -4.083226909926971 9.04145138503012
lowerneck -11.559982805026532 -6.3623573487207175 -1.6595790689952912
upperneck 29.25081651556455 -3.7597096414453834 -12.504465465283761
head 10.74969109588146 -2.8462444843656263 -4.210914675868866
lclavicle -6.130421888125784e-15 -1.1146114901550357e-14
lhumerus 25.823032956125807 -57.33781575390184 91.71621817828091
lradius 17.656725471450677
lwrist 6.162732793018074
lhand 4.666438517592907 51.20072397000679
lfingers 7.125020000000001
lthumb -149.975134984907 37.555533213961795
rclavicle -6.130421888125778e-15 -1.1146114901550358e-14
rhumerus -5.733062323208465 4.400656164334243 -87.98552858209567
rradius 50.550694543628055
rwrist -68.28595822366461
rhand -48.25033583271553 -1.7462664011943865
rfingers 7.125020000000001
rthumb -20.869999990585786 -30.0650639572597
65
root -5.771680362097171 18.146115734555316 -0.9095183738380661 -187.79676858032406 48.646900167752094 -198.0684084066429
lfemur -17.804808492503618 0.8753069480219202 -22.745845068912423
ltibia 10.54588033140799
lfoot 1.2872229381721665 -30.42773889878974
ltoes 3.8527630225519234
rfemur -11.586900324743537 -4.173590366476387 2.712397046750162
rtibia 37.980294912952566
rfoot -3.6743313270087414 -36.41023048029228
rtoes 13.954913414573172
lowerback -8.227446582554922 -4.459367360705617 4.716461687899406
upperback 2.427687528097864 -6.135229911120168 12.015193243473401
thorax 8.694375464535764 -2.9440310057840566 9.987149063842173
lowerneck -10.153631693550194 -9.780262191272318 -3.4581546889523116
upperneck 29.917652550941632 -8.19220829910492 -11.830781640938964
head 10.456179590318039 -4.79863315480674 -4.069242992675702
lclavicle -6.4893341061105956e-15 -1.1458135226894332e-14
lhumerus 18.71467328480542 -53.48218756095423 94.86567696389542
lradius 17.44813675258116
lwrist 12.925893350438919
lhand 6.899545906343201 59.211883794139325
lfingers 7.125020000000001
lthumb -147.8375105416563 35.965081788848906
rclavicle -6.4893341061105924e-15 -1.1458135226894334e-14
rhumerus -4.099544996864019 8.659767280963031 -90.89052466383876
rradius 40.72875401129029
rwrist -67.21067403034299
rhand -38.33653734062134 -7.029477203483374
rfingers 7.125020000000001
rthumb -11.334622465179105 -35.68554926746758
